<?xml version="1.0" encoding="UTF-8" standalone="no"?>
  <svg xmlns="http://www.w3.org/2000/svg" width="800.000000pt" height="800.000000pt" viewBox="0 0 800.000000 800.000000" preserveAspectRatio="xMidYMid meet"> <g transform="translate(0.000000,800.000000) scale(0.100000,-0.100000)" fill="#000000" stroke="none"> <path d="M3890 7361 c-15 -29 -90 -245 -86 -249 4 -3 1647 -602 1653 -602 4 0 16 28 64 163 28 78 35 109 26 112 -23 8 -541 196 -647 235 -58 21 -163 60 -235 86 -71 26 -191 69 -265 96 -74 27 -171 62 -215 78 -44 15 -123 44 -175 64 -52 20 -98 36 -102 36 -4 0 -12 -9 -18 -19z"></path> <path d="M3700 6844 c-6 -14 -48 -130 -94 -257 -47 -128 -109 -299 -140 -382 -45 -124 -164 -452 -293 -808 -14 -37 -23 -73 -20 -80 2 -7 20 -17 38 -24 101 -36 409 -147 504 -183 61 -23 124 -46 140 -52 378 -135 754 -272 877 -319 43 -16 82 -29 87 -29 5 0 20 33 34 73 14 39 80 223 147 407 168 461 180 494 245 670 31 85 76 210 100 278 l44 122 -22 14 c-12 8 -80 34 -152 59 -71 25 -191 68 -265 95 -74 27 -216 79 -315 115 -99 36 -191 70 -205 76 -14 6 -108 40 -210 76 -102 37 -252 91 -334 121 -82 30 -151 54 -153 54 -2 0 -8 -12 -13 -26z"></path> <path d="M3260 4983 c0 -8 147 -288 175 -333 14 -23 36 -40 61 -49 21 -7 80 -28 129 -46 301 -111 485 -175 501 -174 27 0 373 142 374 153 1 11 -26 22 -290 118 -235 85 -365 133 -525 191 -400 147 -425 155 -425 140z"></path> <path d="M702 3293 l3 -1658 135 0 135 0 3 1658 2 1657 -140 0 -140 0 2 -1657z"></path> <path d="M5675 4513 c-230 -34 -423 -170 -521 -368 -28 -57 -47 -108 -48 -131 l-1 -38 128 -1 c71 0 132 2 136 5 4 3 16 21 27 40 55 101 129 165 232 199 51 18 86 21 209 21 130 0 152 2 181 20 66 41 88 113 54 179 -34 68 -56 76 -220 77 -81 1 -160 0 -177 -3z"></path> <path d="M3427 4323 c-5 -17 -38 -108 -100 -275 -14 -37 -22 -69 -19 -72 8 -9 565 -7 578 2 13 8 63 130 66 162 3 20 -12 28 -142 76 -214 79 -346 124 -363 124 -8 0 -17 -8 -20 -17z"></path> <path d="M1236 4065 c1 -75 4 -139 7 -142 11 -10 632 -163 665 -163 76 0 132 56 132 132 0 57 -20 98 -59 121 -26 15 -695 187 -728 187 -16 0 -18 -12 -17 -135z"></path> <path d="M2835 3706 c-65 -16 -151 -73 -193 -128 -39 -51 -72 -151 -72 -219 0 -127 79 -254 196 -314 l59 -30 1827 -3 1827 -2 35 31 c20 17 41 47 47 67 7 24 9 124 7 279 -3 226 -4 243 -24 270 -11 15 -36 36 -55 46 -31 16 -77 17 -588 15 l-553 -3 -2 -112 c-1 -127 -12 -153 -80 -187 -48 -23 -98 -11 -141 34 -29 30 -30 35 -35 148 l-5 117 -1100 2 c-840 1 -1112 -2 -1150 -11z"></path> <path d="M1240 3360 l0 -140 537 2 537 3 1 138 2 137 -539 0 -538 0 0 -140z"></path> <path d="M6825 3358 c-3 -8 -4 -70 -3 -139 l3 -124 88 -3 c110 -4 165 17 190 71 32 66 13 147 -41 184 -36 24 -229 33 -237 11z"></path> <path d="M1560 2888 c-173 -44 -316 -81 -318 -83 -5 -5 -5 -275 0 -280 6 -6 711 171 738 185 76 41 80 185 6 234 -53 34 -96 29 -426 -56z"></path> <path d="M5056 2679 c-33 -39 -90 -98 -127 -131 -77 -69 -103 -119 -93 -175 9 -48 57 -101 100 -109 72 -13 100 1 211 109 111 107 207 221 201 236 -1 5 -29 39 -61 75 l-58 66 -57 0 -57 0 -59 -71z"></path> <path d="M5570 2746 c0 -3 26 -40 59 -83 170 -225 319 -509 416 -793 77 -227 124 -463 152 -770 l8 -85 287 -3 286 -2 7 117 c19 297 -37 703 -139 1007 -55 164 -162 384 -263 541 l-48 74 -382 1 c-211 0 -383 -2 -383 -4z"></path> </g> </svg> 