<svg width="18" height="18" viewBox="0 0 18 18" fill="none" xmlns="http://www.w3.org/2000/svg">
<path fill-rule="evenodd" clip-rule="evenodd" d="M2.58778 2.58776C2.91239 2.26315 3.43869 2.26315 3.76329 2.58776L15.4123 14.2367C15.7369 14.5613 15.7369 15.0876 15.4123 15.4122C15.0877 15.7369 14.5614 15.7369 14.2368 15.4122L2.58778 3.76327C2.26317 3.43866 2.26317 2.91237 2.58778 2.58776Z" fill="white"/>
<path fill-rule="evenodd" clip-rule="evenodd" d="M15.4122 2.58776C15.0876 2.26315 14.5613 2.26315 14.2367 2.58776L2.58773 14.2367C2.26313 14.5613 2.26313 15.0876 2.58774 15.4122C2.91235 15.7369 3.43864 15.7369 3.76325 15.4122L15.4122 3.76327C15.7368 3.43866 15.7368 2.91237 15.4122 2.58776Z" fill="white"/>
</svg>
