<svg width="70" height="34" viewBox="0 0 70 34" fill="none" xmlns="http://www.w3.org/2000/svg">
<path d="M8.00723 33.0146C6.45261 33.0146 5.06656 32.6869 3.84909 32.0313C2.65035 31.3757 1.70446 30.4767 1.01144 29.3341C0.337146 28.1916 0 26.8898 0 25.4289V11.7463H3.31527V25.2884C3.31527 26.2062 3.51194 27.0209 3.90528 27.7327C4.31735 28.4444 4.86989 28.997 5.56292 29.3903C6.27467 29.7837 7.08944 29.9803 8.00723 29.9803C8.94374 29.9803 9.75852 29.7837 10.4515 29.3903C11.1633 28.997 11.7158 28.4444 12.1092 27.7327C12.5212 27.0209 12.7273 26.2062 12.7273 25.2884V11.7463H16.0145V25.4289C16.0145 26.8898 15.6773 28.1916 15.003 29.3341C14.3287 30.4767 13.3828 31.3757 12.1654 32.0313C10.9666 32.6869 9.58058 33.0146 8.00723 33.0146Z" fill="black"/>
<path d="M20.1702 32.6775V11.7463H23.2607L31.1274 22.6474H29.5822L37.3085 11.7463H40.399V32.6775H37.1118V15.6516L38.348 15.9888L30.4531 26.7774H30.116L22.3897 15.9888L23.4855 15.6516V32.6775H20.1702Z" fill="black"/>
<path d="M52.0593 33.0146C50.7481 33.0146 49.5307 32.7712 48.4068 32.2842C47.283 31.7784 46.3278 31.0948 45.5411 30.2332C44.7544 29.3716 44.1738 28.3789 43.7992 27.2551L46.6087 26.075C47.1145 27.3674 47.8543 28.3602 48.8283 29.0532C49.8023 29.7462 50.9261 30.0927 52.1997 30.0927C52.949 30.0927 53.6045 29.9803 54.1664 29.7556C54.7283 29.5121 55.1591 29.1749 55.4588 28.7441C55.7772 28.3133 55.9365 27.817 55.9365 27.2551C55.9365 26.4871 55.7211 25.8784 55.2903 25.4289C54.8595 24.9793 54.2226 24.6234 53.3798 24.3612L49.4464 23.125C47.873 22.638 46.6743 21.8982 45.8502 20.9055C45.026 19.894 44.6139 18.714 44.6139 17.3654C44.6139 16.1854 44.9043 15.1553 45.4849 14.2749C46.0656 13.3759 46.8616 12.6735 47.873 12.1678C48.9032 11.662 50.0739 11.4092 51.385 11.4092C52.6399 11.4092 53.7825 11.6339 54.8126 12.0835C55.8428 12.5143 56.7231 13.1136 57.4536 13.8816C58.2028 14.6495 58.746 15.5392 59.0831 16.5507L56.3298 17.7588C55.9177 16.6537 55.2715 15.8014 54.3912 15.2021C53.5296 14.6027 52.5275 14.303 51.385 14.303C50.692 14.303 50.0832 14.4248 49.5588 14.6683C49.0343 14.893 48.6222 15.2302 48.3226 15.6797C48.0416 16.1105 47.9011 16.6162 47.9011 17.1969C47.9011 17.8712 48.1165 18.4705 48.5473 18.995C48.9781 19.5194 49.6337 19.9128 50.514 20.175L54.1664 21.3269C55.8334 21.8326 57.0884 22.5631 57.9312 23.5184C58.7741 24.4549 59.1955 25.6255 59.1955 27.0303C59.1955 28.1916 58.8865 29.2217 58.2684 30.1208C57.669 31.0199 56.8355 31.7316 55.7679 32.2561C54.7003 32.7618 53.4641 33.0146 52.0593 33.0146Z" fill="black"/>
<path d="M45.5411 30.2333C46.3278 31.0949 47.283 31.7786 48.4069 32.2843L49.7459 29.5837C49.4265 29.4382 49.1207 29.2614 48.8283 29.0533C47.8543 28.3603 47.1145 27.3676 46.6087 26.0752L43.7992 27.2552C44.1738 28.379 44.7544 29.3717 45.5411 30.2333Z" fill="#FF800B"/>
<path fill-rule="evenodd" clip-rule="evenodd" d="M12.1654 32.0316C10.9666 32.6871 9.58058 33.0149 8.00723 33.0149V29.9806C8.94374 29.9806 9.75852 29.7839 10.4515 29.3906C11.1633 28.9972 11.7158 28.4447 12.1092 27.7329L15.003 29.3344C14.3287 30.4769 13.3828 31.376 12.1654 32.0316Z" fill="#FF800B"/>
<path d="M62.8356 3.93489L7.23421 3.93489C5.08126 3.93489 3.33596 5.6802 3.33596 7.83315H0.385925C0.385925 4.05095 3.45201 0.984863 7.23421 0.984863H62.9761C66.8553 0.984863 70 4.12956 70 8.00875V25.9196C70 29.7988 66.8553 32.9435 62.9761 32.9435H61.5714V29.9935H62.8357C65.1632 29.9935 67.05 28.1067 67.05 25.7792V8.14922C67.05 5.82171 65.1632 3.93489 62.8356 3.93489Z" fill="#FF800B"/>
</svg>
