<svg width="23" height="22" viewBox="0 0 23 22" fill="none" xmlns="http://www.w3.org/2000/svg">
<g id="Vector 3">
<path id="Vector 2 (Stroke)" fill-rule="evenodd" clip-rule="evenodd" d="M3.18335 0.733333C3.18335 0.328324 3.51167 0 3.91668 0H18.5834C18.9884 0 19.3167 0.328324 19.3167 0.733333C19.3167 1.13834 18.9884 1.46667 18.5834 1.46667H11.9834V20.5333H18.5834C18.9884 20.5333 19.3167 20.8617 19.3167 21.2667C19.3167 21.6717 18.9884 22 18.5834 22H3.91668C3.51167 22 3.18335 21.6717 3.18335 21.2667C3.18335 20.8617 3.51167 20.5333 3.91668 20.5333H10.5167V1.46667H3.91668C3.51167 1.46667 3.18335 1.13834 3.18335 0.733333Z" fill="#1B53BC"/>
</g>
</svg>
