<svg width="12" height="12" viewBox="0 0 12 12" fill="none" xmlns="http://www.w3.org/2000/svg">
<path d="M7.52731 9.38187C7.76827 9.38187 7.96367 9.18647 7.96367 8.94551V4.58187C7.96367 4.34091 7.76827 4.14551 7.52731 4.14551C7.28635 4.14551 7.09094 4.34091 7.09094 4.58187V8.94551C7.09094 9.18647 7.28635 9.38187 7.52731 9.38187Z" fill="black"/>
<path d="M4.47274 9.38187C4.7137 9.38187 4.9091 9.18647 4.9091 8.94551V4.58187C4.9091 4.34091 4.7137 4.14551 4.47274 4.14551C4.23178 4.14551 4.03638 4.34091 4.03638 4.58187V8.94551C4.03638 9.18647 4.23178 9.38187 4.47274 9.38187Z" fill="black"/>
<path d="M7.74551 0.872727C7.98647 0.872727 8.18187 0.677324 8.18187 0.436364C8.18187 0.195404 7.98647 0 7.74551 0H4.2546C4.01364 0 3.81824 0.195404 3.81824 0.436364C3.81824 0.677324 4.01364 0.872727 4.2546 0.872727H7.74551Z" fill="black"/>
<path d="M1.20004 1.30908C0.959076 1.30908 0.763672 1.50449 0.763672 1.74545C0.763672 1.98641 0.959076 2.18181 1.20004 2.18181H1.6364V10.2109C1.6364 11.197 2.43931 12 3.42549 12H8.57458C9.56072 12 10.3637 11.1971 10.3637 10.2109V2.18181H10.8C11.041 2.18181 11.2364 1.98641 11.2364 1.74545C11.2364 1.50449 11.041 1.30908 10.8 1.30908H9.92731H2.07276H1.20004ZM9.49094 2.18181V10.2109C9.49094 10.7171 9.08076 11.1273 8.57458 11.1273H3.42549C2.91931 11.1273 2.50913 10.7171 2.50913 10.2109V2.18181H9.49094Z" fill="black"/>
</svg>
